<svg width="31" height="31" viewBox="0 0 31 31" fill="none" xmlns="http://www.w3.org/2000/svg">
<path d="M30.6985 12.4643H29.45V12.4H15.5V18.6H24.2598C22.9818 22.2092 19.5478 24.8 15.5 24.8C10.3641 24.8 6.2 20.6359 6.2 15.5C6.2 10.3641 10.3641 6.2 15.5 6.2C17.8707 6.2 20.0275 7.09435 21.6698 8.55522L26.0539 4.17105C23.2856 1.59107 19.5827 0 15.5 0C6.94012 0 0 6.94012 0 15.5C0 24.0599 6.94012 31 15.5 31C24.0599 31 31 24.0599 31 15.5C31 14.4607 30.893 13.4462 30.6985 12.4643Z" fill="#FFC107"/>
<path d="M1.78717 8.28553L6.87969 12.0203C8.25764 8.6087 11.5948 6.2 15.5 6.2C17.8707 6.2 20.0276 7.09435 21.6698 8.55523L26.054 4.17105C23.2857 1.59108 19.5827 0 15.5 0C9.54647 0 4.38342 3.36118 1.78717 8.28553Z" fill="#FF3D00"/>
<path d="M15.5 30.9998C19.5037 30.9998 23.1415 29.4676 25.892 26.976L21.0947 22.9165C19.5385 24.0953 17.6041 24.7998 15.5 24.7998C11.4685 24.7998 8.04529 22.2291 6.75569 18.6416L1.70114 22.536C4.26639 27.5557 9.47594 30.9998 15.5 30.9998Z" fill="#4CAF50"/>
<path d="M30.6985 12.4647H29.45V12.4004H15.5V18.6004H24.2598C23.646 20.3341 22.5308 21.829 21.0924 22.9179C21.0932 22.9171 21.0939 22.9171 21.0947 22.9164L25.892 26.9758C25.5525 27.2843 31 23.2504 31 15.5004C31 14.4611 30.893 13.4466 30.6985 12.4647Z" fill="#1976D2"/>
</svg>
