<svg width="97" height="84" viewBox="0 0 97 84" fill="none" xmlns="http://www.w3.org/2000/svg">
<path d="M11.2783 9.37012C18.0633 1.98817 28.2595 -0.435504 41.5723 1.80273L42.5312 1.96387L42.3965 2.92676L40.0791 19.5869L39.9482 20.5254L39.0049 20.4463C34.52 20.0693 31 20.8322 28.3457 22.6172L28.3262 22.6309C25.6452 24.3438 23.7507 26.8711 22.6553 30.2783C21.7135 33.3975 21.482 37.0463 21.999 41.248H42.4062V83H1V42.248C1.00004 28.0838 4.26465 17.1863 10.958 9.72559L11.2783 9.37012ZM63.7236 9.37012C70.5086 1.98815 80.7048 -0.435489 94.0176 1.80273L94.9766 1.96387L94.8428 2.92676L92.5244 19.5869L92.3936 20.5254L91.4502 20.4463C86.9653 20.0693 83.4453 20.8322 80.791 22.6172L80.7715 22.6309C78.0905 24.3438 76.196 26.8711 75.1006 30.2783C74.1588 33.3975 73.9273 37.0463 74.4443 41.248H94.8516V83H53.4453V42.248C53.4454 28.0838 56.71 17.1863 63.4033 9.72559L63.7236 9.37012Z" stroke="#D4AF37" stroke-width="2"/>
</svg>